<svg fill="none" height="200" viewBox="0 0 200 200" width="200" xmlns="http://www.w3.org/2000/svg" xmlns:xlink="http://www.w3.org/1999/xlink"><radialGradient id="a" cx="0" cy="0" gradientTransform="matrix(0 100 -100 0 100 100)" gradientUnits="userSpaceOnUse" r="1"><stop offset="0" stop-color="#665cee"/><stop offset="1" stop-color="#332e91"/></radialGradient><path d="m174.82 108.75-19.44-33.75 10.26-17.25c.82-1.44.82-3.22 0-4.66l-10.26-17.25c-.52-.93-1.51-1.51-2.6-1.51h-37.9l-8.74-15.3c-.52-.93-1.51-1.51-2.6-1.51h-20.24c-1.09 0-2.08.58-2.6 1.51l-19.44 33.74h-20.24c-1.09 0-2.08.58-2.6 1.51l-10.26 17.25c-.82 1.44-.82 3.22 0 4.66l17.36 31.31-8.74 15.3c-.82 1.44-.82 3.22 0 4.66l10.26 17.25c.52.93 1.51 1.51 2.6 1.51h37.9l8.74 15.3c.52.93 1.51 1.51 2.6 1.51h20.24c1.09 0 2.08-.58 2.6-1.51l19.44-33.74h17.36c1.09 0 2.08-.58 2.6-1.51l10.26-17.25c.82-1.44.82-3.22 0-4.66z" fill="url(#a)"/><path d="m119.12 163.03h-20.24l-11.34-18.32h-37.9l11.62-18.32h19.44l-42.28-71.1h22.84l22.04-36.26 10.26 18.32-10.26 17.94h78.28l-10.26 17.25 19.44 33.74h-19.44l-10.16-17.94-39.98 74.69z" fill="#fff"/><path d="m127.86 79.83h-51.72l25.04 42.28z" fill="url(#a)"/></svg>